<svg width="1200" height="1500" viewBox="0 0 1200 1500" fill="none" xmlns="http://www.w3.org/2000/svg">
  <rect width="1200" height="1500" fill="#0D0907"/>
  <rect width="1200" height="1500" fill="url(#paint0_radial)"/>
  <circle cx="868" cy="286" r="250" fill="#E4B36D" fill-opacity="0.32"/>
  <circle cx="258" cy="1192" r="224" fill="#7C2320" fill-opacity="0.22"/>
  <rect x="420" y="250" width="320" height="420" rx="160" fill="#E0B064"/>
  <rect x="320" y="632" width="520" height="560" rx="250" fill="#1D1612"/>
  <path d="M474 254C514 200 566 168 627 168C689 168 741 201 782 257C741 243 690 236 628 236C564 236 513 242 474 254Z" fill="#221612"/>
  <path d="M364 890C444 826 532 794 626 794C720 794 810 826 889 890C825 1015 743 1106 626 1106C508 1106 428 1014 364 890Z" fill="#EAD6B8"/>
  <text x="74" y="138" fill="#F7EFE7" font-family="Georgia, serif" font-size="72" letter-spacing="12">BEYONCE</text>
  <defs>
    <radialGradient id="paint0_radial" cx="0" cy="0" r="1" gradientUnits="userSpaceOnUse" gradientTransform="translate(600 488) rotate(90) scale(980 760)">
      <stop stop-color="#3A2419"/>
      <stop offset="1" stop-color="#090807"/>
    </radialGradient>
  </defs>
</svg>
