<svg width="1200" height="1500" viewBox="0 0 1200 1500" fill="none" xmlns="http://www.w3.org/2000/svg">
  <rect width="1200" height="1500" fill="#0B0A0B"/>
  <rect width="1200" height="1500" fill="url(#paint0_radial)"/>
  <circle cx="842" cy="242" r="242" fill="#D7B17A" fill-opacity="0.22"/>
  <circle cx="248" cy="1188" r="220" fill="#7F5766" fill-opacity="0.18"/>
  <rect x="446" y="250" width="280" height="390" rx="140" fill="#E5C693"/>
  <rect x="338" y="626" width="494" height="556" rx="244" fill="#171416"/>
  <path d="M480 252C520 205 570 182 627 182C687 182 738 206 778 256C733 243 682 236 626 236C572 236 523 241 480 252Z" fill="#20181A"/>
  <path d="M378 886C454 824 538 794 627 794C716 794 800 824 876 886C815 1004 735 1090 627 1090C518 1090 438 1004 378 886Z" fill="#EDE2D5"/>
  <text x="74" y="138" fill="#F8F1EA" font-family="Georgia, serif" font-size="66" letter-spacing="11">TAYLOR SWIFT</text>
  <defs>
    <radialGradient id="paint0_radial" cx="0" cy="0" r="1" gradientUnits="userSpaceOnUse" gradientTransform="translate(600 480) rotate(90) scale(980 760)">
      <stop stop-color="#30262A"/>
      <stop offset="1" stop-color="#090807"/>
    </radialGradient>
  </defs>
</svg>
